<svg id="Слой_1" data-name="Слой 1" xmlns="http://www.w3.org/2000/svg" viewBox="0 0 256 256"><path d="M240.68,256H15.32A15.32,15.32,0,0,1,0,240.68V15.15A15.15,15.15,0,0,1,15.15,0H240.68A15.32,15.32,0,0,1,256,15.32V240.68A15.32,15.32,0,0,1,240.68,256Z" style="fill:#0081cc"/><rect x="32.5" y="52.5" width="206" height="137" rx="5.84" style="fill:none;stroke:#fff;stroke-miterlimit:10;stroke-width:8px"/><rect x="17.5" y="66.5" width="206" height="137" rx="5.84" style="fill:#0081cc;stroke:#fff;stroke-miterlimit:10;stroke-width:8px"/><path d="M54.17,153.68h-8V116.53H62.08q6.17,0,9.69,4a13.92,13.92,0,0,1,3.53,9.55,13.08,13.08,0,0,1-3.56,9.29q-3.55,3.83-9.66,3.82H54.17ZM54,136.38h8.06a5,5,0,0,0,4.06-1.88,7,7,0,0,0,1.57-4.65,6.81,6.81,0,0,0-1.54-4.54,5.08,5.08,0,0,0-4.09-1.83s-1.34,0-4,0H54Z" style="fill:#fff"/><path d="M108.21,147.58H92.77l-2.87,6.16H81.62v-1.06l17.09-36.42h3.66l17,36.42v1.06h-8.23Zm-7.69-19-5.15,12.26h10.29Z" style="fill:#fff"/><path d="M146.54,134.15l14.91-17.68h2.87v37.27h-8V133.62L147,145.3h-1l-9.35-11.68v20.12h-8V116.47h2.92Z" style="fill:#fff"/><path d="M189.53,147.42h5.26v6.32H176.32v-6.32h5.25V122.74h-4.83v-6.16h17.62v6.16h-4.83Z" style="fill:#fff"/></svg>